Coordinates
version=1
nRows=6
nColumns=38
inDegrees=yes

Units are S.I. units (second, meters, Newtons, ...)
If the header above contains a line with 'inDegrees', this indicates whether rotational values are in degrees (yes) or radians (no).

endheader
time	pelvis_tilt	pelvis_list	pelvis_rotation	pelvis_tx	pelvis_ty	pelvis_tz	hip_flexion_r	hip_adduction_r	hip_rotation_r	knee_angle_r	ankle_angle_r	subtalar_angle_r	mtp_angle_r	hip_flexion_l	hip_adduction_l	hip_rotation_l	knee_angle_l	ankle_angle_l	subtalar_angle_l	mtp_angle_l	lumbar_extension	lumbar_bending	lumbar_rotation	arm_flex_r	arm_add_r	arm_rot_r	elbow_flex_r	pro_sup_r	wrist_flex_r	wrist_dev_r	arm_flex_l	arm_add_l	arm_rot_l	elbow_flex_l	pro_sup_l	wrist_flex_l	wrist_dev_l
      0.51200000	    -10.16882296	      8.13802442	      2.47696365	     -1.12066214	      0.96852790	      0.19912842	    -31.87851017	     -4.26139353	     -9.39044550	    -39.23995642	    -29.77475840	      0.10997753	      8.94569912	     69.78637469	      7.73709079	     -5.81335623	    -43.89478869	      2.22278438	      6.72844831	     18.41657954	     -5.40459476	    -13.07742559	      7.57102873	     47.70606911	    -32.15508691	     -2.20204208	    125.20054612	    158.40090652	      0.00000000	      0.00000000	    -83.20552356	    -18.76222478	    -23.56505238	     53.64713442	    130.98691834	      0.00000000	      0.00000000
      0.51600000	     -9.38659985	      7.77223924	      2.54372993	     -1.08301253	      0.97159761	      0.20040601	    -31.60405453	     -3.97318366	     -9.26340008	    -43.98013259	    -31.87091552	      0.53597902	     20.77209748	     66.72782757	      7.62486667	     -5.55737726	    -38.68669284	      0.72976568	      9.33197517	     26.22052971	     -6.65085715	    -12.85255723	      7.22952380	     45.17871039	    -32.28215238	     -2.97676666	    126.35359342	    161.90354236	      0.00000000	      0.00000000	    -81.63319216	    -18.50166806	    -23.36014950	     54.13041398	    130.13636955	      0.00000000	      0.00000000
      0.52000000	     -8.90002360	      6.89294430	      2.84343805	     -1.04509391	      0.97375485	      0.20199068	    -30.86175981	     -2.99039637	     -8.84886418	    -48.94179921	    -32.73474263	      1.71316892	     20.94645923	     64.23945578	      7.21688023	     -5.27224108	    -34.42620583	     -0.31878856	     12.70533026	     26.30595426	     -7.47659097	    -12.10910294	      6.71250289	     42.22993944	    -32.20372904	     -3.29756026	    127.26669520	    162.12975304	      0.00000000	      0.00000000	    -80.29046185	    -18.34097918	    -23.04650252	     54.95150141	    130.13665067	      0.00000000	      0.00000000
      0.52400000	     -8.05937883	      5.91822782	      2.86064389	     -1.00730251	      0.97597219	      0.20390574	    -30.31143205	     -2.03215408	     -8.24370344	    -53.98927891	    -33.49872158	      2.39745683	     21.47200454	     61.60779428	      6.41881511	     -5.28696915	    -30.88607034	     -0.96673319	     16.07283940	     26.68025632	     -8.61531406	    -11.22478995	      6.59451179	     39.09249890	    -32.09741498	     -3.81093017	    127.75933759	    162.41671267	      0.00000000	      0.00000000	    -78.91593686	    -18.42867759	    -22.44285632	     56.24806214	    130.12436342	      0.00000000	      0.00000000
      0.52800000	     -7.27792800	      5.11999014	      2.83055045	     -0.96982131	      0.97795512	      0.20557386	    -29.55428490	     -1.32180245	     -7.81253728	    -59.25281349	    -33.68089494	      2.83905017	     22.29251162	     59.12571977	      5.65516248	     -5.76896551	    -27.80961142	     -1.92543987	     18.59446302	     27.19935194	     -9.74962665	    -10.49077374	      6.50536523	     35.89356550	    -31.89718164	     -4.11590937	    127.99801924	    162.79090117	      0.00000000	      0.00000000	    -77.32474693	    -18.58648051	    -21.71439651	     57.51675324	    130.07962807	      0.00000000	      0.00000000
      0.53200000	     -6.60466472	      4.43024736	      2.74722111	     -0.93222099	      0.97941801	      0.20699780	    -28.65748629	     -0.74283442	     -7.38384632	    -64.51334637	    -33.57136968	      3.08981358	     23.47763488	     56.93308284	      4.89828002	     -6.61129760	    -25.47011256	     -2.56233981	     20.47858673	     27.84745851	    -10.68052521	     -9.80966909	      6.53836441	     32.52614043	    -31.66122452	     -4.33207563	    127.83353598	    163.24043364	      0.00000000	      0.00000000	    -75.64742700	    -19.02415172	    -20.48553322	     58.75975692	    130.03682718	      0.00000000	      0.00000000
